<?xml version="1.0" encoding="utf-8"?>
<!-- Svg Vector Icons : http://www.onlinewebfonts.com/icon -->
<!DOCTYPE svg PUBLIC "-//W3C//DTD SVG 1.1//EN" "http://www.w3.org/Graphics/SVG/1.1/DTD/svg11.dtd">
<svg version="1.1" xmlns="http://www.w3.org/2000/svg" xmlns:xlink="http://www.w3.org/1999/xlink" x="0px" y="0px" viewBox="0 0 1000 1000" enable-background="new 0 0 1000 1000" xml:space="preserve">
<metadata> Svg Vector Icons : http://www.onlinewebfonts.com/icon </metadata>
<g><path d="M609.7,438.8c0-39.7-22.7-59.6-68.1-59.6h-82.3v114.9h82.3C588.9,495.1,611.6,476.7,609.7,438.8z"/><path d="M990,690.6V300.9c0,0,0-0.1,0-0.1c0-44.9-36.1-81.3-80.9-81.7l0,0h-817c-0.1,0-0.2,0-0.3,0c-0.1,0-0.2,0-0.3,0h-0.7l0,0C46.1,219.6,10,255.9,10,300.7l0,0v398.5l0,0c0,44.9,36.2,81.4,81.1,81.7l0,0h0.4c0.1,0,0.2,0,0.3,0c0.1,0,0.2,0,0.4,0h815.4l0,0c0.2,0,0.4,0,0.6,0c45.2,0,81.8-36.6,81.8-81.8C990,696.3,990,693.4,990,690.6z M228.2,658.7c-87.9,1.9-131-43-129.1-134.7V346.7h49.6v188.6c0,62.4,26.9,93.6,80.8,93.6c55.8,0.9,82.7-30.2,80.8-93.6V346.7h49.6v175.8C363.9,617.1,319.9,662.4,228.2,658.7z M621,653L621,653l-96.4-126.2h-65.2V653h-49.6V346.7H553c71.8,0,107.8,30.3,107.8,90.8c0.9,54.8-26.5,84.2-82.3,87.9L679.2,653L621,653L621,653z M709,346.7h49.6v276.5l163.1,0V653H709V346.7z"/></g>
</svg>